<svg width="708" height="136" viewBox="0 0 708 136" fill="none" xmlns="http://www.w3.org/2000/svg">
<path d="M32.928 87.608C35.584 87.608 37.872 87.304 39.792 86.696C41.712 86.088 43.28 85.24 44.496 84.152C45.744 83.032 46.656 81.72 47.232 80.216C47.808 78.68 48.096 77 48.096 75.176C48.096 71.624 46.832 68.824 44.304 66.776C41.776 64.696 37.984 63.656 32.928 63.656H18.048V87.608H32.928ZM18.048 33.56V57.032H30.336C32.96 57.032 35.232 56.744 37.152 56.168C39.104 55.592 40.704 54.792 41.952 53.768C43.232 52.744 44.176 51.512 44.784 50.072C45.392 48.6 45.696 47 45.696 45.272C45.696 41.208 44.48 38.248 42.048 36.392C39.616 34.504 35.84 33.56 30.72 33.56H18.048ZM30.72 26.216C34.944 26.216 38.576 26.632 41.616 27.464C44.688 28.296 47.2 29.48 49.152 31.016C51.136 32.552 52.592 34.44 53.52 36.68C54.448 38.888 54.912 41.384 54.912 44.168C54.912 45.864 54.64 47.496 54.096 49.064C53.584 50.6 52.8 52.04 51.744 53.384C50.688 54.728 49.344 55.944 47.712 57.032C46.112 58.088 44.224 58.952 42.048 59.624C47.104 60.584 50.896 62.392 53.424 65.048C55.984 67.672 57.264 71.128 57.264 75.416C57.264 78.328 56.72 80.984 55.632 83.384C54.576 85.784 53.008 87.848 50.928 89.576C48.88 91.304 46.352 92.648 43.344 93.608C40.336 94.536 36.912 95 33.072 95H8.784V26.216H30.72ZM139.199 60.632C139.199 65.784 138.383 70.52 136.751 74.84C135.119 79.128 132.815 82.824 129.839 85.928C126.863 89.032 123.279 91.448 119.087 93.176C114.927 94.872 110.319 95.72 105.263 95.72C100.207 95.72 95.5985 94.872 91.4385 93.176C87.2785 91.448 83.7105 89.032 80.7345 85.928C77.7585 82.824 75.4545 79.128 73.8225 74.84C72.1905 70.52 71.3745 65.784 71.3745 60.632C71.3745 55.48 72.1905 50.76 73.8225 46.472C75.4545 42.152 77.7585 38.44 80.7345 35.336C83.7105 32.2 87.2785 29.768 91.4385 28.04C95.5985 26.312 100.207 25.448 105.263 25.448C110.319 25.448 114.927 26.312 119.087 28.04C123.279 29.768 126.863 32.2 129.839 35.336C132.815 38.44 135.119 42.152 136.751 46.472C138.383 50.76 139.199 55.48 139.199 60.632ZM129.647 60.632C129.647 56.408 129.071 52.616 127.919 49.256C126.767 45.896 125.135 43.064 123.023 40.76C120.911 38.424 118.351 36.632 115.343 35.384C112.335 34.136 108.975 33.512 105.263 33.512C101.583 33.512 98.2385 34.136 95.2305 35.384C92.2225 36.632 89.6465 38.424 87.5025 40.76C85.3905 43.064 83.7585 45.896 82.6065 49.256C81.4545 52.616 80.8785 56.408 80.8785 60.632C80.8785 64.856 81.4545 68.648 82.6065 72.008C83.7585 75.336 85.3905 78.168 87.5025 80.504C89.6465 82.808 92.2225 84.584 95.2305 85.832C98.2385 87.048 101.583 87.656 105.263 87.656C108.975 87.656 112.335 87.048 115.343 85.832C118.351 84.584 120.911 82.808 123.023 80.504C125.135 78.168 126.767 75.336 127.919 72.008C129.071 68.648 129.647 64.856 129.647 60.632ZM220.874 60.632C220.874 65.784 220.058 70.52 218.426 74.84C216.794 79.128 214.49 82.824 211.514 85.928C208.538 89.032 204.954 91.448 200.762 93.176C196.602 94.872 191.994 95.72 186.938 95.72C181.882 95.72 177.274 94.872 173.114 93.176C168.954 91.448 165.386 89.032 162.41 85.928C159.434 82.824 157.13 79.128 155.498 74.84C153.866 70.52 153.05 65.784 153.05 60.632C153.05 55.48 153.866 50.76 155.498 46.472C157.13 42.152 159.434 38.44 162.41 35.336C165.386 32.2 168.954 29.768 173.114 28.04C177.274 26.312 181.882 25.448 186.938 25.448C191.994 25.448 196.602 26.312 200.762 28.04C204.954 29.768 208.538 32.2 211.514 35.336C214.49 38.44 216.794 42.152 218.426 46.472C220.058 50.76 220.874 55.48 220.874 60.632ZM211.322 60.632C211.322 56.408 210.746 52.616 209.594 49.256C208.442 45.896 206.81 43.064 204.698 40.76C202.586 38.424 200.026 36.632 197.018 35.384C194.01 34.136 190.65 33.512 186.938 33.512C183.258 33.512 179.914 34.136 176.906 35.384C173.898 36.632 171.322 38.424 169.178 40.76C167.066 43.064 165.434 45.896 164.282 49.256C163.13 52.616 162.554 56.408 162.554 60.632C162.554 64.856 163.13 68.648 164.282 72.008C165.434 75.336 167.066 78.168 169.178 80.504C171.322 82.808 173.898 84.584 176.906 85.832C179.914 87.048 183.258 87.656 186.938 87.656C190.65 87.656 194.01 87.048 197.018 85.832C200.026 84.584 202.586 82.808 204.698 80.504C206.81 78.168 208.442 75.336 209.594 72.008C210.746 68.648 211.322 64.856 211.322 60.632ZM310.564 26.216V95H302.404V44.456C302.404 43.784 302.42 43.064 302.452 42.296C302.516 41.528 302.58 40.744 302.644 39.944L279.028 82.952C278.292 84.392 277.172 85.112 275.668 85.112H274.324C272.82 85.112 271.7 84.392 270.964 82.952L246.868 39.752C247.06 41.448 247.156 43.016 247.156 44.456V95H238.996V26.216H245.86C246.692 26.216 247.332 26.296 247.78 26.456C248.228 26.616 248.66 27.064 249.076 27.8L272.836 70.136C273.22 70.904 273.588 71.704 273.94 72.536C274.324 73.368 274.676 74.216 274.996 75.08C275.316 74.216 275.652 73.368 276.004 72.536C276.356 71.672 276.74 70.856 277.156 70.088L300.484 27.8C300.868 27.064 301.284 26.616 301.733 26.456C302.212 26.296 302.868 26.216 303.7 26.216H310.564Z" fill="white"/>
<path d="M368.137 36.968C367.849 37.448 367.529 37.816 367.177 38.072C366.857 38.296 366.457 38.408 365.977 38.408C365.433 38.408 364.793 38.136 364.057 37.592C363.321 37.048 362.393 36.456 361.273 35.816C360.185 35.144 358.857 34.536 357.289 33.992C355.753 33.448 353.881 33.176 351.673 33.176C349.593 33.176 347.753 33.464 346.153 34.04C344.585 34.584 343.257 35.336 342.169 36.296C341.113 37.256 340.313 38.392 339.769 39.704C339.225 40.984 338.953 42.376 338.953 43.88C338.953 45.8 339.417 47.4 340.345 48.68C341.305 49.928 342.553 51 344.089 51.896C345.657 52.792 347.417 53.576 349.369 54.248C351.353 54.888 353.369 55.56 355.417 56.264C357.497 56.968 359.513 57.768 361.465 58.664C363.449 59.528 365.209 60.632 366.745 61.976C368.313 63.32 369.561 64.968 370.489 66.92C371.449 68.872 371.929 71.272 371.929 74.12C371.929 77.128 371.417 79.96 370.393 82.616C369.369 85.24 367.865 87.528 365.881 89.48C363.929 91.432 361.513 92.968 358.633 94.088C355.785 95.208 352.537 95.768 348.889 95.768C344.409 95.768 340.345 94.968 336.697 93.368C333.049 91.736 329.929 89.544 327.337 86.792L330.025 82.376C330.281 82.024 330.585 81.736 330.937 81.512C331.321 81.256 331.737 81.128 332.185 81.128C332.601 81.128 333.065 81.304 333.577 81.656C334.121 81.976 334.729 82.392 335.401 82.904C336.073 83.416 336.841 83.976 337.705 84.584C338.569 85.192 339.545 85.752 340.633 86.264C341.753 86.776 343.017 87.208 344.425 87.56C345.833 87.88 347.417 88.04 349.177 88.04C351.385 88.04 353.353 87.736 355.081 87.128C356.809 86.52 358.265 85.672 359.449 84.584C360.665 83.464 361.593 82.136 362.233 80.6C362.873 79.064 363.193 77.352 363.193 75.464C363.193 73.384 362.713 71.688 361.753 70.376C360.825 69.032 359.593 67.912 358.057 67.016C356.521 66.12 354.761 65.368 352.777 64.76C350.793 64.12 348.777 63.48 346.729 62.84C344.681 62.168 342.665 61.4 340.681 60.536C338.697 59.672 336.937 58.552 335.401 57.176C333.865 55.8 332.617 54.088 331.657 52.04C330.729 49.96 330.265 47.4 330.265 44.36C330.265 41.928 330.729 39.576 331.657 37.304C332.617 35.032 333.993 33.016 335.785 31.256C337.609 29.496 339.833 28.088 342.457 27.032C345.113 25.976 348.153 25.448 351.577 25.448C355.417 25.448 358.905 26.056 362.041 27.272C365.209 28.488 367.993 30.248 370.393 32.552L368.137 36.968ZM428.902 87.176V95H389.878V26.216H399.142V87.176H428.902ZM480.518 69.464L469.718 41.48C469.398 40.648 469.062 39.688 468.71 38.6C468.358 37.48 468.022 36.296 467.702 35.048C467.03 37.64 466.342 39.8 465.638 41.528L454.838 69.464H480.518ZM499.91 95H492.71C491.878 95 491.206 94.792 490.694 94.376C490.182 93.96 489.798 93.432 489.542 92.792L483.11 76.184H452.246L445.814 92.792C445.622 93.368 445.254 93.88 444.71 94.328C444.166 94.776 443.494 95 442.694 95H435.494L462.998 26.216H472.406L499.91 95ZM569.487 26.216V95H564.831C564.095 95 563.471 94.872 562.959 94.616C562.479 94.36 561.999 93.928 561.519 93.32L521.727 41.48C521.791 42.28 521.839 43.064 521.871 43.832C521.903 44.6 521.919 45.32 521.919 45.992V95H513.759V26.216H518.559C518.975 26.216 519.327 26.248 519.615 26.312C519.903 26.344 520.159 26.424 520.383 26.552C520.607 26.648 520.831 26.808 521.055 27.032C521.279 27.224 521.519 27.48 521.775 27.8L561.567 79.592C561.503 78.76 561.439 77.96 561.375 77.192C561.343 76.392 561.327 75.64 561.327 74.936V26.216H569.487ZM647.744 61.928V88.328C644.288 90.824 640.592 92.696 636.656 93.944C632.752 95.16 628.464 95.768 623.792 95.768C618.256 95.768 613.264 94.92 608.816 93.224C604.368 91.496 600.56 89.096 597.392 86.024C594.256 82.92 591.84 79.208 590.144 74.888C588.448 70.568 587.6 65.816 587.6 60.632C587.6 55.384 588.416 50.6 590.048 46.28C591.712 41.96 594.064 38.264 597.104 35.192C600.144 32.088 603.84 29.688 608.192 27.992C612.544 26.296 617.408 25.448 622.784 25.448C625.504 25.448 628.032 25.656 630.368 26.072C632.704 26.456 634.864 27.032 636.848 27.8C638.832 28.536 640.672 29.448 642.368 30.536C644.064 31.592 645.648 32.792 647.12 34.136L644.48 38.36C644.064 39 643.52 39.416 642.848 39.608C642.208 39.768 641.488 39.608 640.688 39.128C639.92 38.68 639.04 38.136 638.048 37.496C637.056 36.856 635.84 36.248 634.4 35.672C632.992 35.064 631.312 34.552 629.36 34.136C627.44 33.72 625.152 33.512 622.496 33.512C618.624 33.512 615.12 34.152 611.984 35.432C608.848 36.68 606.176 38.488 603.968 40.856C601.76 43.192 600.064 46.04 598.88 49.4C597.696 52.728 597.104 56.472 597.104 60.632C597.104 64.952 597.712 68.824 598.928 72.248C600.176 75.64 601.936 78.536 604.208 80.936C606.512 83.304 609.296 85.112 612.56 86.36C615.824 87.608 619.488 88.232 623.552 88.232C626.752 88.232 629.584 87.88 632.048 87.176C634.544 86.44 636.976 85.432 639.344 84.152V69.032H628.64C628.032 69.032 627.536 68.856 627.152 68.504C626.8 68.152 626.624 67.72 626.624 67.208V61.928H647.744Z" fill="#808080"/>
<path d="M14.2 121.568C15.192 121.568 16.0827 121.429 16.872 121.152C17.6613 120.875 18.328 120.491 18.872 120C19.4267 119.509 19.848 118.933 20.136 118.272C20.4347 117.6 20.584 116.869 20.584 116.08C20.584 114.341 20.0507 113.003 18.984 112.064C17.9173 111.125 16.3227 110.656 14.2 110.656H9.992V121.568H14.2ZM14.2 109.36C16.856 109.36 18.856 109.941 20.2 111.104C21.5547 112.267 22.232 113.925 22.232 116.08C22.232 117.072 22.0453 117.984 21.672 118.816C21.2987 119.648 20.7653 120.368 20.072 120.976C19.3787 121.573 18.536 122.043 17.544 122.384C16.552 122.715 15.4373 122.88 14.2 122.88H9.992V132H8.344V109.36H14.2ZM32.412 120.544C33.4147 120.544 34.3107 120.427 35.1 120.192C35.9 119.947 36.572 119.6 37.116 119.152C37.6707 118.704 38.092 118.165 38.38 117.536C38.668 116.907 38.812 116.197 38.812 115.408C38.812 113.797 38.284 112.603 37.228 111.824C36.1827 111.045 34.652 110.656 32.636 110.656H28.492V120.544H32.412ZM42.46 132H41.052C40.8707 132 40.716 131.973 40.588 131.92C40.4707 131.856 40.3587 131.744 40.252 131.584L32.988 122.4C32.9027 122.283 32.812 122.181 32.716 122.096C32.6307 122.011 32.5293 121.947 32.412 121.904C32.3053 121.851 32.172 121.813 32.012 121.792C31.8627 121.771 31.676 121.76 31.452 121.76H28.492V132H26.844V109.36H32.636C35.2387 109.36 37.1853 109.867 38.476 110.88C39.7773 111.883 40.428 113.36 40.428 115.312C40.428 116.176 40.2787 116.965 39.98 117.68C39.6813 118.395 39.2493 119.024 38.684 119.568C38.1293 120.101 37.452 120.539 36.652 120.88C35.8627 121.221 34.972 121.451 33.98 121.568C34.236 121.728 34.4653 121.941 34.668 122.208L42.46 132ZM66.2685 120.672C66.2685 122.421 66.0072 124.011 65.4845 125.44C64.9618 126.859 64.2258 128.075 63.2765 129.088C62.3272 130.091 61.1858 130.869 59.8525 131.424C58.5298 131.968 57.0685 132.24 55.4685 132.24C53.8685 132.24 52.4072 131.968 51.0845 131.424C49.7618 130.869 48.6258 130.091 47.6765 129.088C46.7272 128.075 45.9912 126.859 45.4685 125.44C44.9458 124.011 44.6845 122.421 44.6845 120.672C44.6845 118.933 44.9458 117.355 45.4685 115.936C45.9912 114.507 46.7272 113.291 47.6765 112.288C48.6258 111.275 49.7618 110.491 51.0845 109.936C52.4072 109.381 53.8685 109.104 55.4685 109.104C57.0685 109.104 58.5298 109.381 59.8525 109.936C61.1858 110.48 62.3272 111.259 63.2765 112.272C64.2258 113.285 64.9618 114.507 65.4845 115.936C66.0072 117.355 66.2685 118.933 66.2685 120.672ZM64.5725 120.672C64.5725 119.093 64.3538 117.675 63.9165 116.416C63.4792 115.157 62.8605 114.091 62.0605 113.216C61.2605 112.341 60.3005 111.675 59.1805 111.216C58.0605 110.747 56.8232 110.512 55.4685 110.512C54.1245 110.512 52.8925 110.747 51.7725 111.216C50.6525 111.675 49.6872 112.341 48.8765 113.216C48.0765 114.091 47.4525 115.157 47.0045 116.416C46.5672 117.675 46.3485 119.093 46.3485 120.672C46.3485 122.261 46.5672 123.685 47.0045 124.944C47.4525 126.192 48.0765 127.253 48.8765 128.128C49.6872 129.003 50.6525 129.669 51.7725 130.128C52.8925 130.587 54.1245 130.816 55.4685 130.816C56.8232 130.816 58.0605 130.587 59.1805 130.128C60.3005 129.669 61.2605 129.003 62.0605 128.128C62.8605 127.253 63.4792 126.192 63.9165 124.944C64.3538 123.685 64.5725 122.261 64.5725 120.672ZM77.325 121.568C78.317 121.568 79.2077 121.429 79.997 121.152C80.7863 120.875 81.453 120.491 81.997 120C82.5517 119.509 82.973 118.933 83.261 118.272C83.5597 117.6 83.709 116.869 83.709 116.08C83.709 114.341 83.1757 113.003 82.109 112.064C81.0423 111.125 79.4477 110.656 77.325 110.656H73.117V121.568H77.325ZM77.325 109.36C79.981 109.36 81.981 109.941 83.325 111.104C84.6797 112.267 85.357 113.925 85.357 116.08C85.357 117.072 85.1703 117.984 84.797 118.816C84.4237 119.648 83.8903 120.368 83.197 120.976C82.5037 121.573 81.661 122.043 80.669 122.384C79.677 122.715 78.5623 122.88 77.325 122.88H73.117V132H71.469V109.36H77.325ZM103.569 130.64L103.537 132H89.969V109.36H103.537V110.72H91.617V119.872H101.537V121.2H91.617V130.64H103.569ZM114.1 120.544C115.102 120.544 115.998 120.427 116.788 120.192C117.588 119.947 118.26 119.6 118.804 119.152C119.358 118.704 119.78 118.165 120.068 117.536C120.356 116.907 120.5 116.197 120.5 115.408C120.5 113.797 119.972 112.603 118.916 111.824C117.87 111.045 116.34 110.656 114.324 110.656H110.18V120.544H114.1ZM124.148 132H122.74C122.558 132 122.404 131.973 122.276 131.92C122.158 131.856 122.046 131.744 121.94 131.584L114.676 122.4C114.59 122.283 114.5 122.181 114.404 122.096C114.318 122.011 114.217 121.947 114.1 121.904C113.993 121.851 113.86 121.813 113.7 121.792C113.55 121.771 113.364 121.76 113.14 121.76H110.18V132H108.532V109.36H114.324C116.926 109.36 118.873 109.867 120.164 110.88C121.465 111.883 122.116 113.36 122.116 115.312C122.116 116.176 121.966 116.965 121.668 117.68C121.369 118.395 120.937 119.024 120.372 119.568C119.817 120.101 119.14 120.539 118.34 120.88C117.55 121.221 116.66 121.451 115.668 121.568C115.924 121.728 116.153 121.941 116.356 122.208L124.148 132ZM141.752 110.752H133.8V132H132.152V110.752H124.152V109.36H141.752V110.752ZM152.555 122.672V132H150.923V122.672L142.539 109.36H143.979C144.128 109.36 144.251 109.397 144.347 109.472C144.443 109.536 144.523 109.632 144.587 109.76L151.067 120.16C151.205 120.405 151.333 120.645 151.451 120.88C151.568 121.104 151.669 121.328 151.755 121.552C151.84 121.328 151.936 121.104 152.043 120.88C152.149 120.645 152.272 120.405 152.411 120.16L158.891 109.76C158.944 109.643 159.019 109.547 159.115 109.472C159.221 109.397 159.349 109.36 159.499 109.36H160.939L152.555 122.672Z" fill="#F78D1E"/>
<path d="M201.992 132H200.344V109.36H201.992V132ZM226.16 109.36V132H225.392C225.253 132 225.136 131.979 225.04 131.936C224.954 131.883 224.869 131.797 224.784 131.68L210.08 112.032C210.112 112.352 210.128 112.656 210.128 112.944V132H208.688V109.36H209.504C209.653 109.36 209.765 109.381 209.84 109.424C209.925 109.456 210.016 109.536 210.112 109.664L224.784 129.264C224.752 128.944 224.736 128.64 224.736 128.352V109.36H226.16ZM250.06 109.36L240.716 132H239.26L229.916 109.36H231.212C231.361 109.36 231.484 109.403 231.58 109.488C231.676 109.563 231.751 109.664 231.804 109.792L239.516 128.576C239.601 128.811 239.687 129.061 239.772 129.328C239.857 129.595 239.937 129.867 240.012 130.144C240.076 129.867 240.145 129.595 240.22 129.328C240.295 129.061 240.38 128.811 240.476 128.576L248.172 109.792C248.215 109.675 248.289 109.573 248.396 109.488C248.503 109.403 248.631 109.36 248.78 109.36H250.06ZM267.413 130.64L267.381 132H253.813V109.36H267.381V110.72H255.461V119.872H265.381V121.2H255.461V130.64H267.413ZM283.367 112.112C283.271 112.293 283.133 112.384 282.951 112.384C282.813 112.384 282.631 112.288 282.407 112.096C282.194 111.893 281.901 111.675 281.527 111.44C281.154 111.195 280.685 110.971 280.119 110.768C279.565 110.565 278.877 110.464 278.055 110.464C277.234 110.464 276.509 110.581 275.879 110.816C275.261 111.051 274.738 111.371 274.311 111.776C273.895 112.181 273.575 112.651 273.351 113.184C273.138 113.717 273.031 114.277 273.031 114.864C273.031 115.632 273.191 116.267 273.511 116.768C273.842 117.269 274.274 117.696 274.807 118.048C275.341 118.4 275.943 118.699 276.615 118.944C277.298 119.179 277.997 119.413 278.711 119.648C279.426 119.883 280.119 120.144 280.791 120.432C281.474 120.709 282.082 121.061 282.615 121.488C283.149 121.915 283.575 122.443 283.895 123.072C284.226 123.691 284.391 124.464 284.391 125.392C284.391 126.341 284.226 127.237 283.895 128.08C283.575 128.912 283.106 129.637 282.487 130.256C281.869 130.875 281.111 131.365 280.215 131.728C279.319 132.08 278.295 132.256 277.143 132.256C275.65 132.256 274.365 131.995 273.287 131.472C272.21 130.939 271.266 130.213 270.455 129.296L270.903 128.592C271.031 128.432 271.181 128.352 271.351 128.352C271.447 128.352 271.57 128.416 271.719 128.544C271.869 128.672 272.05 128.832 272.263 129.024C272.477 129.205 272.733 129.408 273.031 129.632C273.33 129.845 273.677 130.048 274.071 130.24C274.466 130.421 274.919 130.576 275.431 130.704C275.943 130.832 276.525 130.896 277.175 130.896C278.071 130.896 278.871 130.763 279.575 130.496C280.279 130.219 280.871 129.845 281.351 129.376C281.842 128.907 282.215 128.352 282.471 127.712C282.727 127.061 282.855 126.368 282.855 125.632C282.855 124.832 282.69 124.176 282.359 123.664C282.039 123.141 281.613 122.709 281.079 122.368C280.546 122.016 279.938 121.723 279.255 121.488C278.583 121.253 277.89 121.024 277.175 120.8C276.461 120.576 275.762 120.325 275.079 120.048C274.407 119.771 273.805 119.419 273.271 118.992C272.738 118.555 272.306 118.016 271.975 117.376C271.655 116.725 271.495 115.915 271.495 114.944C271.495 114.187 271.639 113.456 271.927 112.752C272.215 112.048 272.637 111.429 273.191 110.896C273.746 110.352 274.429 109.92 275.239 109.6C276.061 109.269 276.994 109.104 278.039 109.104C279.213 109.104 280.263 109.291 281.191 109.664C282.13 110.037 282.983 110.608 283.751 111.376L283.367 112.112ZM304.22 110.752H296.268V132H294.62V110.752H286.62V109.36H304.22V110.752ZM330.4 109.36V132H328.976V112.704C328.976 112.427 328.992 112.133 329.024 111.824L320.112 127.648C319.962 127.925 319.749 128.064 319.472 128.064H319.216C318.938 128.064 318.725 127.925 318.576 127.648L309.424 111.792C309.456 112.112 309.472 112.416 309.472 112.704V132H308.032V109.36H309.168C309.317 109.36 309.434 109.376 309.52 109.408C309.605 109.44 309.69 109.525 309.776 109.664L318.912 125.408C319.072 125.707 319.21 126.027 319.328 126.368C319.392 126.197 319.461 126.032 319.536 125.872C319.61 125.701 319.69 125.541 319.776 125.392L328.656 109.664C328.741 109.525 328.826 109.44 328.912 109.408C329.008 109.376 329.13 109.36 329.28 109.36H330.4ZM350.694 130.64L350.662 132H337.094V109.36H350.662V110.72H338.742V119.872H348.662V121.2H338.742V130.64H350.694ZM373.129 109.36V132H372.361C372.222 132 372.105 131.979 372.009 131.936C371.923 131.883 371.838 131.797 371.753 131.68L357.049 112.032C357.081 112.352 357.097 112.656 357.097 112.944V132H355.657V109.36H356.473C356.622 109.36 356.734 109.381 356.809 109.424C356.894 109.456 356.985 109.536 357.081 109.664L371.753 129.264C371.721 128.944 371.705 128.64 371.705 128.352V109.36H373.129ZM394.533 110.752H386.581V132H384.933V110.752H376.933V109.36H394.533V110.752Z" fill="#F78D1E"/>
<path d="M453.712 109.36V132H452.288V112.704C452.288 112.427 452.304 112.133 452.336 111.824L443.424 127.648C443.275 127.925 443.061 128.064 442.784 128.064H442.528C442.251 128.064 442.037 127.925 441.888 127.648L432.736 111.792C432.768 112.112 432.784 112.416 432.784 112.704V132H431.344V109.36H432.48C432.629 109.36 432.747 109.376 432.832 109.408C432.917 109.44 433.003 109.525 433.088 109.664L442.224 125.408C442.384 125.707 442.523 126.027 442.64 126.368C442.704 126.197 442.773 126.032 442.848 125.872C442.923 125.701 443.003 125.541 443.088 125.392L451.968 109.664C452.053 109.525 452.139 109.44 452.224 109.408C452.32 109.376 452.443 109.36 452.592 109.36H453.712ZM472.615 123.776L468.007 112.336C467.847 111.963 467.692 111.515 467.543 110.992C467.479 111.248 467.409 111.493 467.335 111.728C467.26 111.952 467.18 112.16 467.095 112.352L462.487 123.776H472.615ZM477.623 132H476.359C476.209 132 476.087 131.963 475.991 131.888C475.895 131.803 475.82 131.696 475.767 131.568L473.111 124.992H461.991L459.335 131.568C459.292 131.685 459.217 131.787 459.111 131.872C459.004 131.957 458.876 132 458.727 132H457.479L466.743 109.36H468.359L477.623 132ZM498.847 109.36V132H498.079C497.941 132 497.823 131.979 497.727 131.936C497.642 131.883 497.557 131.797 497.471 131.68L482.767 112.032C482.799 112.352 482.815 112.656 482.815 112.944V132H481.375V109.36H482.191C482.341 109.36 482.453 109.381 482.527 109.424C482.613 109.456 482.703 109.536 482.799 109.664L497.471 129.264C497.439 128.944 497.423 128.64 497.423 128.352V109.36H498.847ZM517.74 123.776L513.132 112.336C512.972 111.963 512.817 111.515 512.668 110.992C512.604 111.248 512.534 111.493 512.46 111.728C512.385 111.952 512.305 112.16 512.22 112.352L507.612 123.776H517.74ZM522.748 132H521.484C521.334 132 521.212 131.963 521.116 131.888C521.02 131.803 520.945 131.696 520.892 131.568L518.236 124.992H507.116L504.46 131.568C504.417 131.685 504.342 131.787 504.236 131.872C504.129 131.957 504.001 132 503.852 132H502.604L511.868 109.36H513.484L522.748 132ZM544.08 121.728V129.776C542.95 130.576 541.744 131.189 540.464 131.616C539.184 132.043 537.744 132.256 536.144 132.256C534.352 132.256 532.742 131.984 531.312 131.44C529.883 130.885 528.662 130.107 527.648 129.104C526.646 128.091 525.872 126.869 525.328 125.44C524.795 124.011 524.528 122.421 524.528 120.672C524.528 118.923 524.79 117.339 525.312 115.92C525.846 114.491 526.603 113.275 527.584 112.272C528.576 111.259 529.771 110.48 531.168 109.936C532.566 109.381 534.139 109.104 535.888 109.104C536.752 109.104 537.547 109.163 538.272 109.28C539.008 109.397 539.691 109.573 540.32 109.808C540.95 110.032 541.536 110.315 542.08 110.656C542.624 110.987 543.147 111.371 543.648 111.808L543.2 112.512C543.051 112.768 542.827 112.827 542.528 112.688C542.368 112.624 542.139 112.475 541.84 112.24C541.542 112.005 541.131 111.76 540.608 111.504C540.086 111.248 539.435 111.019 538.656 110.816C537.888 110.613 536.95 110.512 535.84 110.512C534.368 110.512 533.035 110.747 531.84 111.216C530.656 111.685 529.643 112.357 528.8 113.232C527.968 114.107 527.323 115.173 526.864 116.432C526.416 117.691 526.192 119.104 526.192 120.672C526.192 122.261 526.416 123.691 526.864 124.96C527.323 126.229 527.979 127.307 528.832 128.192C529.696 129.077 530.742 129.755 531.968 130.224C533.195 130.693 534.576 130.928 536.112 130.928C536.784 130.928 537.403 130.885 537.968 130.8C538.544 130.715 539.088 130.597 539.6 130.448C540.123 130.288 540.624 130.096 541.104 129.872C541.595 129.637 542.091 129.376 542.592 129.088V122.992H538.256C538.139 122.992 538.038 122.955 537.952 122.88C537.878 122.805 537.84 122.72 537.84 122.624V121.728H544.08ZM563.132 130.64L563.1 132H549.532V109.36H563.1V110.72H551.18V119.872H561.1V121.2H551.18V130.64H563.132ZM590.462 109.36V132H589.038V112.704C589.038 112.427 589.054 112.133 589.086 111.824L580.174 127.648C580.025 127.925 579.811 128.064 579.534 128.064H579.278C579.001 128.064 578.787 127.925 578.638 127.648L569.486 111.792C569.518 112.112 569.534 112.416 569.534 112.704V132H568.094V109.36H569.23C569.379 109.36 569.497 109.376 569.582 109.408C569.667 109.44 569.753 109.525 569.838 109.664L578.974 125.408C579.134 125.707 579.273 126.027 579.39 126.368C579.454 126.197 579.523 126.032 579.598 125.872C579.673 125.701 579.753 125.541 579.838 125.392L588.718 109.664C588.803 109.525 588.889 109.44 588.974 109.408C589.07 109.376 589.193 109.36 589.342 109.36H590.462ZM610.757 130.64L610.725 132H597.157V109.36H610.725V110.72H598.805V119.872H608.725V121.2H598.805V130.64H610.757ZM633.191 109.36V132H632.423C632.284 132 632.167 131.979 632.071 131.936C631.986 131.883 631.9 131.797 631.815 131.68L617.111 112.032C617.143 112.352 617.159 112.656 617.159 112.944V132H615.719V109.36H616.535C616.684 109.36 616.796 109.381 616.871 109.424C616.956 109.456 617.047 109.536 617.143 109.664L631.815 129.264C631.783 128.944 631.767 128.64 631.767 128.352V109.36H633.191ZM654.595 110.752H646.643V132H644.995V110.752H636.995V109.36H654.595V110.752Z" fill="#F78D1E"/>
</svg>
