<svg width="200" height="200" viewBox="0 0 200 200" fill="none" xmlns="http://www.w3.org/2000/svg">
<path d="M159.55 163.71C151.68 163.71 148.29 157.2 145 150.86C143.691 148.22 142.221 145.661 140.6 143.2C123.83 145.61 106.49 148.02 87.7 146.52C86.62 148.13 85.64 149.82 84.7 151.47C80.81 158.2 76.79 165.16 66.62 162.61C59.73 160.88 59.25 155.87 58.79 151.02C58.6327 148.092 58.0673 145.201 57.11 142.43C56.44 140.64 53.95 139.07 51.31 137.43C49.5097 136.348 47.7917 135.135 46.17 133.8C44.0716 131.927 42.0943 129.923 40.25 127.8C37.25 124.51 34.75 121.68 31.36 120.7C28.3 119.81 25.13 119.94 21.77 120.09C18.41 120.24 14.68 120.39 11.06 119.35C10.646 119.232 10.2812 118.983 10.02 118.64C9.75871 118.298 9.61493 117.881 9.60999 117.45C9.60999 115.45 8.67999 112.59 7.73999 109.52C5.59999 102.54 2.93999 93.94 9.30999 90.55C13.31 88.42 16.24 90.7 18.37 92.36C19.78 93.46 20.97 94.36 22.37 94.36C25.27 94.28 29.5 89.49 32.9 85.64C35.44 82.76 37.64 80.27 39.68 79.07C41.4111 78.1049 43.2291 77.3047 45.11 76.68C49.19 75.2 50.74 74.4 50.87 71.9C50.99 69.65 49.39 68.38 46.78 66.49C44.17 64.6 40.71 62.11 41.42 57.49C41.5879 56.3981 42.0301 55.3667 42.7052 54.4922C43.3803 53.6178 44.2662 52.9289 45.28 52.49C50.84 49.85 61.46 52.49 65.39 54.73C67.8629 56.2368 70.0223 58.2061 71.75 60.53C73.75 62.92 75.14 64.65 78.94 65.32C85.06 66.39 93.33 65.1 101.31 63.84C107.36 62.9 113.62 61.92 119.18 61.9C139.93 61.81 167.13 64.75 179.57 78.82C181.568 81.0459 183.029 83.7007 183.84 86.58C184.659 89.184 185.797 91.6764 187.23 94C188.076 95.1168 189.088 96.0981 190.23 96.91C192.99 99.14 196.42 101.91 196.34 107.25C196.27 111.76 193.34 113.64 191 115.16C189.514 115.967 188.224 117.09 187.22 118.45C185.55 121.06 184.46 125.73 183.31 130.67C182.481 134.68 181.358 138.624 179.95 142.47C176.61 150.81 172.83 160.26 165.87 162.58C163.838 163.294 161.704 163.675 159.55 163.71V163.71ZM141.41 139.06C141.741 139.053 142.069 139.12 142.37 139.257C142.671 139.394 142.938 139.597 143.15 139.85C145.184 142.761 146.992 145.824 148.56 149.01C152.73 157.01 155.26 161.88 164.56 158.76C169.75 157.03 173.32 148.13 176.19 140.97C177.51 137.309 178.569 133.56 179.36 129.75C180.59 124.46 181.76 119.47 183.81 116.28C185.111 114.415 186.821 112.873 188.81 111.77L189.62 111.24H187.55C187.02 111.24 186.511 111.029 186.136 110.654C185.761 110.279 185.55 109.77 185.55 109.24V103.15C185.549 102.636 185.746 102.142 186.1 101.77C186.454 101.398 186.937 101.176 187.45 101.15C188.066 101.115 188.684 101.179 189.28 101.34C188.78 100.9 188.28 100.47 187.69 100.02C186.184 98.9346 184.872 97.6025 183.81 96.08C182.226 93.5048 180.967 90.7439 180.06 87.86C179.422 85.4876 178.229 83.3008 176.58 81.48C165.24 68.64 139.58 65.91 119.76 65.91H119.22C113.95 65.91 107.85 66.91 101.95 67.8C93.64 69.1 85.05 70.45 78.26 69.26C73.01 68.34 70.8 65.66 68.67 63.06C67.2407 61.1112 65.4477 59.4575 63.39 58.19C60.2 56.33 51.09 54.19 47.02 56.1C46.5987 56.2612 46.2278 56.5312 45.9449 56.8826C45.6621 57.2339 45.4775 57.654 45.41 58.1C45.1 60.1 46.31 61.19 49.15 63.24C51.82 65.16 55.15 67.56 54.9 72.1C54.62 77.5 50.3 79.1 46.5 80.46C44.8536 80.9994 43.2602 81.689 41.74 82.52C40.25 83.4 38.05 85.89 35.92 88.3C31.61 93.19 27.14 98.24 22.5 98.37C19.7 98.43 17.59 96.82 15.91 95.51C13.69 93.77 12.77 93.24 11.21 94.07C8.01999 95.77 9.40999 101.26 11.57 108.26C12.401 110.698 13.0462 113.195 13.5 115.73C16.1804 116.133 18.8986 116.224 21.6 116C25.13 115.85 28.79 115.7 32.48 116.77C36.97 118.06 40.01 121.45 43.23 125.04C44.9672 127.04 46.824 128.934 48.79 130.71C50.2639 131.915 51.8211 133.014 53.45 134C56.67 136 59.7 138 60.85 141C61.9428 144.103 62.5925 147.345 62.78 150.63C63.28 155.86 63.65 157.72 67.58 158.71C74.48 160.44 77.13 156.52 81.21 149.45C82.4 147.4 83.62 145.28 85.09 143.24C85.2981 142.962 85.5731 142.741 85.8896 142.597C86.206 142.454 86.5536 142.393 86.9 142.42C106.08 144.11 123.9 141.55 141.1 139.07C141.203 139.057 141.307 139.053 141.41 139.06V139.06ZM141.53 141.06L141.82 143.06L141.53 141.06Z" fill="white"/>
</svg>
