<svg width="164" height="141" viewBox="0 0 164 141" fill="none" xmlns="http://www.w3.org/2000/svg">
<path d="M162.91 71.43L83.59 1.19001C83.2044 0.859294 82.7075 0.687682 82.2 0.710006H82.01C81.7274 0.663238 81.438 0.680276 81.1629 0.75987C80.8878 0.839464 80.6339 0.979599 80.42 1.17001L48 29.9L48.1 22.59C48.104 22.3367 48.0575 22.0851 47.9633 21.8499C47.8691 21.6147 47.729 21.4005 47.5513 21.22C47.3735 21.0394 47.1616 20.8961 46.9279 20.7982C46.6942 20.7004 46.4434 20.65 46.19 20.65H26.08C25.8288 20.6487 25.5798 20.6972 25.3475 20.7927C25.1152 20.8882 24.9041 21.0289 24.7265 21.2065C24.5488 21.3841 24.4082 21.5952 24.3127 21.8275C24.2172 22.0598 24.1687 22.3088 24.17 22.56V51L1.09 71.43C0.901914 71.5966 0.748548 71.7987 0.638685 72.0246C0.528821 72.2506 0.464619 72.496 0.449756 72.7468C0.434893 72.9976 0.46966 73.2489 0.552068 73.4863C0.634476 73.7236 0.762905 73.9424 0.929996 74.13L9.28 83.56C9.61789 83.9375 10.0913 84.1662 10.597 84.1961C11.1028 84.2261 11.5999 84.055 11.98 83.72L24.17 72.93V135.67C24.1726 137.05 24.7227 138.373 25.6995 139.348C26.6763 140.322 28 140.87 29.38 140.87H64.38C64.8735 140.862 65.3447 140.663 65.6937 140.314C66.0428 139.965 66.2423 139.494 66.25 139V108C66.2473 107.817 66.2814 107.635 66.3503 107.465C66.4192 107.295 66.5215 107.141 66.6511 107.011C66.7807 106.882 66.935 106.779 67.1049 106.71C67.2747 106.641 67.4567 106.607 67.64 106.61H96.36C96.5424 106.609 96.7233 106.644 96.892 106.713C97.0607 106.783 97.2138 106.885 97.3424 107.015C97.4709 107.144 97.5723 107.298 97.6406 107.467C97.7089 107.636 97.7427 107.818 97.74 108V139C97.74 139.507 97.9412 139.992 98.2994 140.351C98.6576 140.709 99.1434 140.91 99.65 140.91H134.65C136.03 140.91 137.354 140.362 138.33 139.388C139.307 138.413 139.857 137.09 139.86 135.71V72.91L152 83.72C152.386 84.0507 152.883 84.2223 153.39 84.2C153.64 84.1865 153.885 84.1229 154.11 84.0129C154.335 83.903 154.536 83.749 154.7 83.56L163.04 74.13C163.209 73.9443 163.34 73.7271 163.424 73.4908C163.509 73.2545 163.547 73.0038 163.535 72.7531C163.523 72.5023 163.461 72.2564 163.354 72.0293C163.247 71.8023 163.096 71.5987 162.91 71.43V71.43ZM28 24.47H44.25L44.12 33.33L28 47.61V24.47ZM136 135.67C136.003 135.852 135.969 136.033 135.9 136.201C135.832 136.37 135.731 136.523 135.602 136.652C135.473 136.78 135.32 136.882 135.151 136.95C134.983 137.019 134.802 137.053 134.62 137.05H101.57V107.93C101.57 106.547 101.021 105.221 100.045 104.242C99.0678 103.264 97.7427 102.713 96.36 102.71H67.64C66.2573 102.713 64.9321 103.264 63.9554 104.242C62.9786 105.221 62.43 106.547 62.43 107.93V137.05H29.38C29.1984 137.051 29.0184 137.017 28.8503 136.948C28.6823 136.879 28.5296 136.777 28.4012 136.649C28.2728 136.52 28.1712 136.368 28.1023 136.2C28.0335 136.032 27.9987 135.852 28 135.67V69.55L82 21.71L136 69.52V135.67ZM153.14 79.59L139.14 67.19L83.28 17.72C82.9309 17.4114 82.481 17.241 82.015 17.241C81.549 17.241 81.0991 17.4114 80.75 17.72L24.81 67.25L10.88 79.59L5.06 73L26.11 54.39C26.5722 54.3833 27.0164 54.2092 27.36 53.9L47.3 35.9C47.5023 35.7085 47.6624 35.4769 47.77 35.22L82 4.89001L158.94 73L153.14 79.59Z" fill="white"/>
</svg>
